<svg width="512" height="512" viewBox="0 0 512 512" fill="none" xmlns="http://www.w3.org/2000/svg">
<path fill-rule="evenodd" clip-rule="evenodd" d="M233.565 300.8C180.906 300.8 138.217 343.422 138.217 396H127C127 337.237 174.711 289.6 233.565 289.6H278.435C337.289 289.6 385 337.237 385 396H373.783C373.783 343.422 331.094 300.8 278.435 300.8H233.565Z" fill="black"/>
<path fill-rule="evenodd" clip-rule="evenodd" d="M256 239.2C286.976 239.2 312.087 214.128 312.087 183.2C312.087 152.272 286.976 127.2 256 127.2C225.024 127.2 199.913 152.272 199.913 183.2C199.913 214.128 225.024 239.2 256 239.2ZM256 250.4C293.171 250.4 323.304 220.314 323.304 183.2C323.304 146.086 293.171 116 256 116C218.829 116 188.696 146.086 188.696 183.2C188.696 220.314 218.829 250.4 256 250.4Z" fill="black"/>
</svg>
