<svg width="64" height="64" viewBox="0 0 64 64" fill="none" xmlns="http://www.w3.org/2000/svg">
<path fill-rule="evenodd" clip-rule="evenodd" d="M41.0822 31.156L31.8328 30.5517L22.9178 31.156C22.6373 30.2825 21.8118 29.6496 20.8369 29.6496H13.8132C13.0822 29.6496 12.4352 30.0054 12.039 30.5517C9.35888 31.1454 6.6452 32.31 4.41219 34.2675C3.91583 34.7027 3.44321 35.177 3 35.6929L5.1686 37.5208C6.39893 36.0886 7.94404 35.029 9.6301 34.2859C10.2792 33.9998 10.9492 33.7606 11.6301 33.5651V43H23.02V34.2986L23.9602 33.844L31.8336 33.24L40.0414 33.8448L40.98 34.2986V43H52.3699V33.5651C53.0508 33.7606 53.7208 33.9998 54.3699 34.2859C56.056 35.029 57.6011 36.0886 58.8314 37.5208L61 35.6929C60.5568 35.177 60.0842 34.7027 59.5878 34.2675C57.3548 32.31 54.6411 31.1454 51.961 30.5517C51.5648 30.0054 50.9178 29.6496 50.1868 29.6496H43.1631C42.1882 29.6496 41.3627 30.2825 41.0822 31.156ZM53.0162 28.7463C52.271 28.0653 51.2759 27.6496 50.1868 27.6496H43.1631C41.9063 27.6496 40.7746 28.202 40.006 29.0815L31.8304 28.5472L23.9916 29.0787C23.223 28.2009 22.0924 27.6496 20.8369 27.6496H13.8132C12.7241 27.6496 11.729 28.0653 10.9838 28.7463C7.59839 29.599 4.11195 31.3293 1.48293 34.3896L0.167366 35.921L5.39459 40.3269L6.68567 38.824C7.50173 37.8741 8.50402 37.1057 9.6301 36.5069V45H25.02V35.7686L31.8367 35.2457L38.98 35.772V45H54.3699V36.5069C55.496 37.1057 56.4983 37.8741 57.3143 38.824L58.6054 40.3269L63.8326 35.921L62.5171 34.3896C59.888 31.3293 56.4016 29.599 53.0162 28.7463ZM53.0411 20.0897C53.0411 23.4709 50.2791 26.1795 46.9122 26.1795C43.5454 26.1795 40.7834 23.4709 40.7834 20.0897C40.7834 16.7086 43.5454 14 46.9122 14C50.2791 14 53.0411 16.7086 53.0411 20.0897ZM17.0878 26.1795C13.7209 26.1795 10.9589 23.4709 10.9589 20.0897C10.9589 16.7086 13.7209 14 17.0878 14C20.4546 14 23.2166 16.7086 23.2166 20.0897C23.2166 23.4709 20.4546 26.1795 17.0878 26.1795ZM12.9589 20.0897C12.9589 22.3484 14.8075 24.1795 17.0878 24.1795C19.3681 24.1795 21.2166 22.3484 21.2166 20.0897C21.2166 17.831 19.3681 16 17.0878 16C14.8075 16 12.9589 17.831 12.9589 20.0897ZM51.0411 20.0897C51.0411 22.3484 49.1925 24.1795 46.9122 24.1795C44.6319 24.1795 42.7834 22.3484 42.7834 20.0897C42.7834 17.831 44.6319 16 46.9122 16C49.1925 16 51.0411 17.831 51.0411 20.0897Z" fill="black"/>
</svg>
